# xmcd
#
# Track frame offsets: 
#        150
#        24098
#        43425
#        75887
#        128516
#        154602
#        186584
#        204585
#        240280
#        263842
#        287915
#        315223
#
# Disc length: 4489 seconds
#
# Revision: 2
# Processed by: cddbd v1.5.2PL0 Copyright (c) Steve Scherf et al.
# Submitted via: ExactAudioCopy v1.0b1
#
DISCID=9211870c
DTITLE=Various Artist - Compilation Jazz 2004 Édition 25e Anniversaire
DYEAR=2004
DGENRE=Jazz
TTITLE0=Diana Krall- Somtimes I Just Freak Out
TTITLE1=George Benson- Irreplaceable
TTITLE2=Kenny Barron- Footprints
TTITLE3=Charlie Haden- Round Midnight
TTITLE4=Jillian Lebeck- You've Changed
TTITLE5=Chris Potter- Stella By Starlight
TTITLE6=Danilo Perez- Fiddle and the Drum 
TTITLE7=Michel Portal- Good Bye Pork Pie Hat
TTITLE8=Wibutee- We Are In Space, So Are You
TTITLE9=Sekoya- Fugitive Pieces
TTITLE10=Richard Bona- Muto Bye Bye
TTITLE11=Matt Dusk- Five
EXTD=
EXTT0=
EXTT1=
EXTT2=
EXTT3=
EXTT4=
EXTT5=
EXTT6=
EXTT7=
EXTT8=
EXTT9=
EXTT10=
EXTT11=
PLAYORDER=
